<?xml version="1.0" encoding="UTF-8"?>
<svg width="350px" height="249px" viewBox="0 0 350 249" version="1.1" xmlns="http://www.w3.org/2000/svg" xmlns:xlink="http://www.w3.org/1999/xlink">
    <!-- Generator: Sketch 52.3 (67297) - http://www.bohemiancoding.com/sketch -->
    <title>Group 120</title>
    <desc>Created with Sketch.</desc>
    <defs>
        <polygon id="path-1" points="7.07070707e-05 0.226162218 349.835017 0.226162218 349.835017 74.0859071 7.07070707e-05 74.0859071"></polygon>
        <path d="M0.076755814,4.17028829 L0.689610465,49.7553018 C0.713209302,51.5126577 2.32436628,52.9202613 4.28855233,52.8992523 L36.2127733,52.5557072 C38.1769593,52.5344595 40.8376686,50.6796982 40.8140698,48.9223423 L39.114,3.75010811 C39.0901628,1.99275225 37.4787674,0.585148649 35.5148198,0.606157658 L4.38843023,0.20245045 C2.42424419,0.223698198 0.0531569767,2.41269369 0.076755814,4.17028829" id="path-3"></path>
        <polygon id="path-5" points="0.0680891353 0.119742857 62.1328519 0.119742857 62.1328519 93.4867607 0.0680891353 93.4867607"></polygon>
    </defs>
    <g id="03.-Car-Rental" stroke="none" stroke-width="1" fill="none" fill-rule="evenodd">
        <g id="0814_Car-Rental_Self-Drive" transform="translate(-458.000000, -179.000000)">
            <g id="Group-120" transform="translate(458.000000, 179.000000)">
                <g id="Group-50" transform="translate(0.000000, 17.000000)">
                    <path d="M321.399626,119.403938 C319.177774,112.323198 313.06232,107.931426 307.74067,109.59401 C302.41902,111.2573 299.906091,118.345331 302.127943,125.425836 C304.349795,132.506576 310.465013,136.898583 315.786899,135.235528 C321.108549,133.572944 323.621478,126.484678 321.399626,119.403938" id="Fill-1" fill="#C8EEFC"></path>
                    <path d="M100.607983,41.505565 C99.4205758,37.7215343 96.1527306,35.374772 93.3086566,36.2633336 C90.4648182,37.1518953 89.1218552,40.9399243 90.3092626,44.7234846 C91.49667,48.5075153 94.7645152,50.854748 97.6085892,49.9659511 C100.452428,49.0773895 101.795391,45.2895957 100.607983,41.505565" id="Fill-3" fill="#C8EEFC"></path>
                    <path d="M95.359138,165.010104 C91.1944916,160.943841 65.9009226,162.783055 72.8804175,135.109229 C79.8596768,107.435168 61.0692727,102.682845 67.4409226,86.561731 C73.8125724,70.4406171 91.3128081,60.394085 104.49402,57.9981672 C117.675232,55.6022495 95.4409226,8.64583634 128.840822,2.56631556 C162.240721,-3.51320521 162.179912,12.076371 180.425401,10.6174647 C198.670889,9.15832331 213.44631,-7.50444153 240.894559,4.47585284 C268.342808,16.4563824 253.731663,41.3450453 253.731663,41.3450453 C253.731663,41.3450453 281.897825,17.2668597 308.050485,55.3952791 C334.20338,93.5234632 278.813347,117.498399 278.813347,117.498399 L266.144997,141.066214 C266.144997,141.066214 317.559643,140.733415 306.839037,177.290741 C296.118431,213.847831 266.059441,231.634116 237.007084,222.656069 C207.954727,213.678021 95.359138,165.010104 95.359138,165.010104" id="Fill-5" fill="#C8EEFC"></path>
                    <path d="M86.474936,82.6544588 C86.474936,86.9900186 83.4974613,90.5047526 81.1893468,90.5047526 C78.8812323,90.5047526 75.0434882,87.4806326 75.0434882,83.1450728 C75.0434882,78.8095129 78.8812323,74.804165 81.1893468,74.804165 C83.4974613,74.804165 86.474936,78.318899 86.474936,82.6544588" id="Fill-7" fill="#C8EEFC"></path>
                    <g id="Group-11" transform="translate(0.000000, 157.814942)">
                        <mask id="mask-2" fill="white">
                            <use xlink:href="#path-1"></use>
                        </mask>
                        <g id="Clip-10"></g>
                        <path d="M349.835088,37.1560347 C349.835088,57.5517932 271.521822,74.0859071 174.917579,74.0859071 C78.3133367,74.0859071 7.07070707e-05,57.5517932 7.07070707e-05,37.1560347 C7.07070707e-05,16.7602761 78.3133367,0.226162218 174.917579,0.226162218 C271.521822,0.226162218 349.835088,16.7602761 349.835088,37.1560347" id="Fill-9" fill="#C7E2F6" mask="url(#mask-2)"></path>
                    </g>
                    <path d="M15.0872626,176.273458 C15.0872626,179.176218 18.3202256,185.94956 23.4912694,185.94956 L61.9545017,185.94956 C67.1260168,185.94956 72.2977677,182.401899 79.5702256,182.401899 L256.048946,182.401899 L292.491606,182.401899 C297.0977,182.401899 308.0877,179.498903 312.936084,176.273458 C317.784468,173.048012 318.269283,172.241298 318.269283,170.145017 L318.269283,157.404812 C318.269283,155.469638 312.451269,153.373357 312.451269,149.986568 L312.451269,131.279265 C312.451269,126.441097 268.815343,95.4771463 254.917162,92.0905929 C241.01898,88.7038042 180.091404,88.3811185 163.768912,89.8327338 C147.446657,91.2841138 112.377364,108.540037 90.2366229,124.828609 C66.4792828,124.828609 40.9453098,130.784418 29.7940976,137.482733 C18.6431212,144.180813 15.0872626,155.631216 15.0872626,160.469385 L15.0872626,176.273458 Z" id="Fill-12" fill="#E5E5EB"></path>
                    <path d="M17.9645455,150.269177 C15.9105051,154.350022 15.0872391,158.162747 15.0872391,160.469291 L15.0872391,176.273364 C15.0872391,179.176359 18.320202,185.949701 23.4912458,185.949701 L61.9544781,185.949701 C67.126229,185.949701 72.2977441,182.401805 79.570202,182.401805 L256.048923,182.401805 L292.491582,182.401805 C297.097677,182.401805 308.087677,179.499045 312.936061,176.273364 C317.784444,173.047918 318.269259,172.241439 318.269259,170.145158 L318.269259,157.404953 C318.269259,155.469544 312.451246,153.373263 312.451246,149.98671 L312.451246,133.299955 L17.9645455,150.269177 Z" id="Fill-14" fill="#E0E0E6"></path>
                    <path d="M188.332478,136.401642 C190.660155,111.698076 194.004599,97.3336239 194.423185,95.5943668 C194.249953,95.5953076 194.088976,95.595778 193.925172,95.5962484 C193.404296,97.7771991 190.137394,112.0845 187.849549,136.356249 C185.554162,160.732425 187.490593,175.341714 187.808774,177.482917 L188.298539,177.482917 C188.018067,175.622065 186.015407,160.99937 188.332478,136.401642" id="Fill-16" fill="#DCDCE2"></path>
                    <path d="M102.247987,132.959724 C103.124283,132.060108 103.42031,130.54405 103.059939,128.799148 C102.606,126.599382 101.236168,124.572953 99.8034074,123.98003 L99.6179192,124.426898 C100.912801,124.962669 102.161017,126.842572 102.585024,128.896989 C102.912397,130.482194 102.662801,131.839967 101.900579,132.622456 C100.450141,134.111232 90.2251919,135.665156 71.5095017,137.24166 C67.2729697,137.598448 64.5948215,137.665478 61.7604108,137.736977 C58.5057643,137.818119 55.1408148,137.902789 49.0458653,138.416217 C39.0811178,139.255858 31.0061347,141.446216 26.6677845,142.623126 C25.985697,142.808458 25.3889293,142.970507 24.8852593,143.099863 C23.8383232,143.36963 23.0954276,143.471234 22.565596,143.485816 C22.429367,143.638927 22.3035084,143.795331 22.1708148,143.949853 C22.258963,143.955498 22.3270774,143.974313 22.4227677,143.974313 C23.0933064,143.974313 23.956404,143.838842 25.006404,143.568604 C25.5121953,143.438072 26.1106128,143.276023 26.7950572,143.089985 C31.1183232,141.917309 39.1659663,139.734007 49.0866397,138.898128 C55.1672121,138.386112 58.5250909,138.301913 61.7721953,138.2203 C64.6148552,138.149272 67.299367,138.081771 71.5502761,137.723807 C90.6508485,136.114847 100.692667,134.556218 102.247987,132.959724" id="Fill-18" fill="#DCDCE2"></path>
                    <path d="M249.022596,145.216065 L248.820845,145.546747 C245.870239,150.387738 240.987916,156.89931 237.065559,162.131428 C234.084549,166.109258 231.508926,169.544967 230.467411,171.312447 C228.188993,175.176444 224.914549,177.482988 221.706333,177.482988 L188.298421,177.482988 C188.317276,177.607641 188.328589,177.675612 188.33071,177.684784 L187.852495,177.765456 C187.850609,177.754637 187.834582,177.653503 187.808892,177.482988 L112.013269,177.482988 C107.940071,177.482988 107.866535,173.123909 107.795593,168.908533 C107.788522,168.495063 107.781451,168.084179 107.771081,167.679646 C107.651822,163.157107 107.757175,135.249264 108.737411,129.505599 C109.514246,124.950369 116.20337,118.999264 128.619296,111.817625 C137.93236,106.430515 146.636636,102.226428 153.128724,99.9793879 C164.359835,96.091872 178.707007,95.5934966 189.951788,95.5934966 L193.343606,95.5982005 C193.525559,95.5982005 193.728253,95.5972597 193.925054,95.5963189 C193.968657,95.4140438 193.99529,95.30609 193.996939,95.2948007 L194.468791,95.4131031 C194.465727,95.42157 194.4497,95.4848371 194.423303,95.5944374 C196.767949,95.5812665 199.998791,95.5292887 203.663539,95.4697847 C209.288286,95.379 215.663,95.2755148 221.069027,95.2755148 C226.507343,95.2755148 229.956906,95.3804112 231.614044,95.5963189 C236.953842,96.2913162 256.398286,122.622422 257.102764,126.724199 C257.805357,130.812806 254.121754,136.854225 249.022596,145.216065 M257.580037,126.641881 C256.780811,121.989516 237.179162,95.8324534 231.676502,95.1162887 C229.998623,94.898029 226.529027,94.7917214 221.069027,94.7917214 C215.659229,94.7917214 209.28263,94.8952066 203.655761,94.9859914 C199.394481,95.0549031 195.714886,95.1144071 193.343606,95.1144071 L189.951788,95.1097033 C178.669061,95.1097033 164.26933,95.6113713 152.969633,99.5221714 C146.449498,101.77909 137.715054,105.996818 128.375828,111.398981 C115.829801,118.656116 109.061721,124.72082 108.259195,129.424222 C107.274717,135.194934 107.167007,163.162517 107.286266,167.691876 C107.297108,168.094998 107.303707,168.504705 107.310778,168.91653 C107.382192,173.158482 107.463269,177.966781 112.013269,177.966781 L221.706333,177.966781 C225.087781,177.966781 228.518488,175.570864 230.883875,171.558225 C231.91337,169.813323 234.480508,166.387963 237.453741,162.421657 C241.382697,157.181072 246.271855,150.658917 249.23566,145.798169 L249.436468,145.467487 C254.589599,137.015803 258.313034,130.909235 257.580037,126.641881" id="Fill-20" fill="#DCDCE2"></path>
                    <path d="M267.038051,147.486789 C250.704246,147.486789 237.463404,160.699969 237.463404,176.999124 C237.463404,178.84563 237.64135,180.649565 237.967074,182.401993 L256.048758,182.401993 L292.491653,182.401993 C293.468825,182.401993 294.743438,182.264404 296.176199,182.02827 C296.457377,180.392498 296.612697,178.714391 296.612697,176.999124 C296.612697,160.699969 283.37162,147.486789 267.038051,147.486789" id="Fill-22" fill="#868690"></path>
                    <path d="M79.5702963,182.401875 L105.085886,182.401875 C105.411138,180.649447 105.58932,178.845512 105.58932,176.999242 C105.58932,160.699851 92.3482424,147.486672 76.0144377,147.486672 C59.6808687,147.486672 46.4397912,160.699851 46.4397912,176.999242 C46.4397912,180.120262 46.9288485,183.126036 47.8284781,185.949536 L61.9543367,185.949536 C67.1260875,185.949536 72.2978384,182.401875 79.5702963,182.401875" id="Fill-24" fill="#868690"></path>
                    <path d="M101.468182,176.999171 C101.468182,191.027297 90.0723232,202.399145 76.0145791,202.399145 C61.956835,202.399145 50.5609764,191.027297 50.5609764,176.999171 C50.5609764,162.971046 61.956835,151.599197 76.0145791,151.599197 C90.0723232,151.599197 101.468182,162.971046 101.468182,176.999171" id="Fill-26" fill="#404040"></path>
                    <path d="M94.0242828,176.999171 C94.0242828,186.924814 85.9610842,194.971024 76.0144848,194.971024 C66.0678855,194.971024 58.0049226,186.924814 58.0049226,176.999171 C58.0049226,167.073529 66.0678855,159.027318 76.0144848,159.027318 C85.9610842,159.027318 94.0242828,167.073529 94.0242828,176.999171" id="Fill-28" fill="#C4C4C4"></path>
                    <path d="M292.491677,176.999171 C292.491677,191.027297 281.09629,202.399145 267.038074,202.399145 C252.979859,202.399145 241.584471,191.027297 241.584471,176.999171 C241.584471,162.971046 252.979859,151.599197 267.038074,151.599197 C281.09629,151.599197 292.491677,162.971046 292.491677,176.999171" id="Fill-30" fill="#404040"></path>
                    <path d="M285.047778,176.999171 C285.047778,186.924814 276.984579,194.971024 267.03798,194.971024 C257.09138,194.971024 249.028182,186.924814 249.028182,176.999171 C249.028182,167.073529 257.09138,159.027318 267.03798,159.027318 C276.984579,159.027318 285.047778,167.073529 285.047778,176.999171" id="Fill-32" fill="#C4C4C4"></path>
                    <path d="M23.7337475,144.583935 C23.7337475,144.583935 20.8243872,148.131831 20.2589663,149.82499 C19.6935455,151.518385 20.2594377,153.453558 22.60267,153.453558 L36.339404,153.453558 C38.5211886,153.453558 42.5611549,150.147676 44.8240168,147.486695 C47.0866431,144.825949 50.4803468,140.471104 49.5107172,139.906874 C48.5410875,139.34288 36.016037,140.955367 23.7337475,144.583935" id="Fill-34" fill="#FFFFFF"></path>
                    <path d="M30.6127205,171.67728 C29.803596,170.0742 27.8447744,168.77452 26.2383098,168.77452 L15.0873333,168.77452 L15.0873333,176.273434 C15.0873333,177.073798 15.3414074,178.171917 15.8059529,179.338007 L31.5715084,179.338007 C33.1779731,179.338007 33.8242357,178.038092 33.0151111,176.435012 L30.6127205,171.67728 Z" id="Fill-36" fill="#404040"></path>
                    <path d="M90.2365758,124.828538 L98.9630067,124.828538 C100.740818,124.828538 103.650414,124.505853 106.397384,122.812458 C109.144589,121.119064 121.406845,111.926755 129.164118,107.391046 C136.921391,102.855336 141.316542,100.559611 142.012064,100.2548 C143.254623,99.7105615 143.80001,98.1382919 142.194017,98.1382919 L137.093209,98.1382919 C137.093209,98.1382919 112.619842,107.895301 90.2365758,124.828538" id="Fill-38" fill="#474747"></path>
                    <path d="M117.871468,121.683764 C116.457798,122.785646 114.881502,125.796125 117.871468,125.957233 C120.861434,126.11834 179.041098,123.861422 181.789246,123.820733 C184.536215,123.780045 185.343926,122.167087 185.828741,120.312585 C186.313556,118.458318 189.707495,101.524845 189.869414,100.073465 C190.031333,98.6220853 190.030391,97.2513767 187.52571,97.2513767 C185.02103,97.2513767 165.708337,97.9776547 154.880492,101.444644 C144.052882,104.911634 129.668943,112.491455 117.871468,121.683764" id="Fill-40" fill="#474747"></path>
                    <path d="M197.061384,100.23502 C197.061384,100.23502 196.334044,119.425881 196.334044,120.393468 C196.334044,121.361055 196.817916,122.974013 198.676805,122.974013 C200.535694,122.974013 259.362091,121.603539 261.786401,121.522633 C264.210475,121.441961 265.341081,120.635247 264.937815,118.942088 C264.53337,117.248694 251.361586,101.283513 240.533269,98.4609541 C229.706131,95.6383951 201.50438,97.2513532 200.131249,97.2513532 C198.758354,97.2513532 197.152125,97.8259313 197.061384,100.23502" id="Fill-42" fill="#474747"></path>
                    <path d="M272.051088,100.286998 C270.193141,101.077013 267.638259,102.162667 267.037956,102.412208 C266.068327,102.815094 266.229303,104.427817 268.895902,105.959869 C271.562502,107.492155 280.128428,114.668619 283.522367,117.813394 C286.916071,120.957933 289.179404,121.925755 291.603478,121.925755 L303.39836,121.925755 C295.190448,115.268128 282.771458,106.613472 272.051088,100.286998" id="Fill-44" fill="#474747"></path>
                    <path d="M312.451199,149.986639 L312.451199,132.730716 L298.633623,132.730716 C296.612815,132.730716 295.561636,133.496036 296.612815,136.37904 C297.663758,139.262044 302.834094,147.002502 304.288539,148.131667 C305.742983,149.260831 307.036687,150.147747 308.894397,150.147747 L312.468168,150.147747 C312.464397,150.093417 312.451199,150.04191 312.451199,149.986639" id="Fill-46" fill="#474747"></path>
                    <path d="M318.269189,164.944579 L318.269189,160.882314 L313.799559,160.882314 C312.674609,160.882314 311.763667,161.791808 311.763667,162.913447 C311.763667,164.035085 312.674609,164.944579 313.799559,164.944579 L318.269189,164.944579 Z" id="Fill-48" fill="#474747"></path>
                </g>
                <g id="Group-53" transform="translate(248.000000, 171.000000)">
                    <mask id="mask-4" fill="white">
                        <use xlink:href="#path-3"></use>
                    </mask>
                    <g id="Clip-52"></g>
                    <path d="M0.076755814,4.17028829 L0.689610465,49.7553018 C0.713209302,51.5126577 2.32436628,52.9202613 4.28855233,52.8992523 L36.2127733,52.5557072 C38.1769593,52.5344595 40.8376686,50.6796982 40.8140698,48.9223423 L39.114,3.75010811 C39.0901628,1.99275225 37.4787674,0.585148649 35.5148198,0.606157658 L4.38843023,0.20245045 C2.42424419,0.223698198 0.0531569767,2.41269369 0.076755814,4.17028829" id="Fill-51" mask="url(#mask-4)"></path>
                </g>
                <g id="Group-119" transform="translate(76.000000, 0.000000)">
                    <path d="M176.928572,222.73779 L208.405636,222.398597 C210.34231,222.377854 211.893295,220.95414 211.870027,219.219047 L211.265991,174.211526 C211.242723,172.476197 209.653898,171.086426 207.717459,171.107404 L176.24016,171.446597 C174.303486,171.46734 172.752501,172.891054 172.775769,174.626147 L173.379805,219.633669 C173.403073,221.368997 174.991898,222.758769 176.928572,222.73779" id="Fill-54" fill="#4BAAFC"></path>
                    <path d="M173.379805,219.633716 L172.775769,174.626194 C172.752501,172.890866 174.303486,171.467387 176.24016,171.446409 L179.280315,171.413644 L207.574559,222.407601 L176.928572,222.737837 C174.991898,222.75858 173.403073,221.368809 173.379805,219.633716" id="Fill-56" fill="#007EE3"></path>
                    <path d="M191.71717,174.665559 C191.719286,174.817594 191.858425,174.939223 192.027884,174.937337 C192.197578,174.935451 192.333192,174.810994 192.331312,174.658959 C192.329197,174.506923 192.190057,174.385294 192.020598,174.38718 C191.850904,174.389066 191.715055,174.513523 191.71717,174.665559" id="Fill-58" fill="#FFFFFF"></path>
                    <path d="M173.703328,118.941358 C172.371395,119.164108 166.488042,121.279172 165.932894,125.843779 C165.37798,130.408151 163.712769,144.769279 163.712769,144.769279 L157.829417,128.292851 L153.500339,127.958844 C153.500339,127.958844 155.831399,147.107094 161.159603,152.005472 C166.488042,156.904086 168.819102,148.554379 168.819102,148.554379 L171.59414,139.202886 L173.703328,118.941358 Z" id="Fill-60" fill="#FFC6CA"></path>
                    <path d="M154.388342,128.626834 C154.388342,128.626834 154.388342,126.400277 153.722258,126.06627 C153.056173,125.732263 150.1702,123.505706 149.725987,122.837927 C149.282009,122.169913 147.617034,117.716799 148.727096,117.939313 C149.837158,118.162063 153.500386,121.613156 153.500386,121.613156 C153.500386,121.613156 152.723366,119.164084 153.056173,118.718584 C153.389216,118.27332 155.276298,121.390641 155.498404,121.947163 C155.72051,122.503684 156.275424,128.849584 156.275424,128.849584 L154.388342,128.626834 Z" id="Fill-62" fill="#FFC6CA"></path>
                    <path d="M173.844513,96.3403179 C173.440725,97.5434036 172.1283,106.259175 173.107213,108.392389 C174.086127,110.525839 174.818961,112.627704 178.475373,112.996596 L174.015852,123.176861 L176.661621,133.091946 L186.652885,129.706382 C186.652885,129.706382 192.925218,124.086954 192.522371,122.931011 C192.119289,121.774832 185.610983,111.202104 185.610983,111.202104 L182.65591,96.3169821 L175.296078,94.7699893 L174.138774,96.0218679 L173.844513,96.3403179 Z" id="Fill-64" fill="#FFC6CA"></path>
                    <path d="M181.559761,100.593193 C181.559761,100.593193 182.305522,110.827907 184.426227,114.212057 C186.546697,117.596207 183.884005,124.271636 186.589708,126.294064 C188.3675,127.622786 193.415309,134.761393 195.207673,136.07055 C198.315518,138.340479 202.459154,137.21565 205.944932,130.686364 C209.43071,124.156843 211.878582,116.517343 198.457243,106.032536 C198.457243,106.032536 200.785012,98.0958 196.479203,96.5393786 C192.173628,94.9827214 191.048994,94.0815857 191.048994,94.0815857 C191.048994,94.0815857 189.176249,86.0109643 179.279469,88.6556786 C169.382923,91.3003929 171.570848,96.9016714 171.570848,96.9016714 C171.570848,96.9016714 165.899025,113.869564 176.841469,117.934221 L178.47542,112.996479 C178.47542,112.996479 173.577562,111.765579 173.10726,108.392507 C172.636959,105.0192 173.84456,96.3402 173.84456,96.3402 C173.84456,96.3402 175.907212,100.570329 181.559761,100.593193" id="Fill-66" fill="#222B53"></path>
                    <path d="M177.810581,122.726481 C180.013783,123.522017 182.734763,118.673139 185.176994,115.66731 C185.176994,115.66731 192.805938,119.917946 191.816918,119.492953 C191.816918,119.492953 192.231987,128.518217 192.46326,138.200889 C192.92698,157.608896 195.43502,158.18946 195.43502,158.18946 C195.43502,158.18946 185.32953,159.826731 185.107424,159.492724 C184.885553,159.158717 176.981854,158.96826 176.759748,158.077731 C176.537641,157.187203 172.482377,143.656024 171.150209,141.540724 C169.818275,139.42566 167.930958,130.408174 169.374063,127.736117 C170.817167,125.064296 173.703375,118.941381 173.703375,118.941381 L177.588475,116.380817 C177.588475,116.380817 175.035309,121.72446 177.810581,122.726481" id="Fill-68" fill="#FEDA6F"></path>
                    <polygon id="Fill-70" fill="#FAC5CA" points="151.169726 213.063958 150.681797 219.588294 147.429172 219.262065 147.103886 212.574615"></polygon>
                    <polygon id="Fill-72" fill="#FAC5CA" points="181.32313 209.089108 183.716709 215.175486 180.646939 216.302201 177.450487 210.424194"></polygon>
                    <path d="M152.145584,217.794013 L146.7786,218.609584 C146.7786,218.609584 141.411615,222.197863 139.297256,222.360977 C137.183132,222.524091 135.068773,224.481463 137.183132,224.807691 C139.297256,225.13392 152.796156,224.155234 152.796156,224.155234 L152.145584,217.794013 Z" id="Fill-74" fill="#063B5D"></path>
                    <path d="M189.018706,165.835701 C189.018706,165.835701 160.445243,169.589923 161.258458,177.745166 C162.071673,185.900644 152.796086,213.55323 152.796086,213.55323 L145.152334,213.390116 C145.152334,213.390116 150.540941,178.41813 150.540941,173.524701 C150.540941,168.631509 177.308879,157.843573 177.308879,157.843573 L189.018706,165.835701 Z" id="Fill-76" fill="#222B53"></path>
                    <path d="M184.18473,214.205687 L178.655103,216.326173 C178.655103,216.326173 178.329817,220.24068 176.215693,220.730023 C174.101333,221.219366 170.848708,222.850273 171.173994,224.155187 C171.499045,225.460101 180.932105,223.50273 180.932105,223.50273 L187.112305,218.609537 L184.18473,214.205687 Z" id="Fill-78" fill="#063B5D"></path>
                    <path d="M195.113612,157.995962 C195.113612,157.995962 201.562455,166.402241 194.521094,171.267855 C188.568171,175.381069 170.425719,175.945605 171.021763,177.290591 C172.322907,180.226412 184.510087,210.780405 184.510087,210.780405 L177.191386,212.574662 C177.191386,212.574662 158.847745,186.130584 157.709244,177.975105 C156.570978,169.819862 177.796832,159.311484 177.796832,159.311484 L195.113612,157.995962 Z" id="Fill-80" fill="#063B5D"></path>
                    <path d="M162.888978,152.945736 L132.839035,152.945736 C132.104792,152.945736 131.504282,152.343486 131.504282,151.607115 L128.650038,130.169608 C128.650038,129.433236 129.250548,128.830986 129.984792,128.830986 L160.034734,128.830986 C160.768743,128.830986 161.369488,129.433236 161.369488,130.169608 L164.223732,151.607115 C164.223732,152.343486 163.622987,152.945736 162.888978,152.945736" id="Fill-82" fill="#0B52FF"></path>
                    <path d="M160.766792,152.945736 L130.71685,152.945736 C129.982606,152.945736 129.382096,152.343486 129.382096,151.607115 L126.527852,130.169608 C126.527852,129.433236 127.128362,128.830986 127.862606,128.830986 L157.912548,128.830986 C158.646557,128.830986 159.247302,129.433236 159.247302,130.169608 L162.101546,151.607115 C162.101546,152.343486 161.500801,152.945736 160.766792,152.945736" id="Fill-84" fill="#4BAAFC"></path>
                    <path d="M129.859378,154.623527 L183.246478,154.623527 C183.819724,154.623527 184.288615,154.153277 184.288615,153.57837 C184.288615,153.003463 183.819724,152.533213 183.246478,152.533213 L129.859378,152.533213 C129.286132,152.533213 128.81724,153.003463 128.81724,153.57837 C128.81724,154.153277 129.286132,154.623527 129.859378,154.623527" id="Fill-86" fill="#0B52FF"></path>
                    <path d="M141.381883,141.384823 C141.381883,142.729573 142.268664,143.819516 143.362274,143.819516 C144.456118,143.819516 145.342899,142.729573 145.342899,141.384823 C145.342899,140.040309 144.456118,138.95013 143.362274,138.95013 C142.268664,138.95013 141.381883,140.040309 141.381883,141.384823" id="Fill-88" fill="#007EE3"></path>
                    <path d="M174.084082,155.531004 C173.979492,155.565182 173.765847,155.610439 173.594273,155.646032 C173.409302,155.679739 173.224565,155.716511 173.034894,155.741732 C172.658135,155.800189 172.274561,155.840732 171.893102,155.863596 C171.128539,155.912154 170.366561,155.892825 169.625266,155.801132 C168.888907,155.696946 168.185687,155.505546 167.526419,155.229761 C166.872086,154.944782 166.304246,154.534168 165.780122,154.051896 L165.689634,153.968925 C165.189248,153.508575 164.411288,153.542282 163.952268,154.044118 C163.53814,154.497396 163.525448,155.177196 163.89492,155.643911 C164.533035,156.450761 165.300654,157.176054 166.177563,157.718196 C167.053767,158.249261 167.9939,158.646439 168.950016,158.921518 C169.906601,159.182689 170.875408,159.342268 171.843745,159.416989 C172.328619,159.455646 172.812552,159.472382 173.300011,159.466489 C173.543035,159.467432 173.789115,159.455175 174.035195,159.444804 C174.293732,159.427596 174.509962,159.416518 174.831723,159.373146 L174.95159,159.356882 C176.026632,159.211918 176.780854,158.220268 176.636308,157.142346 C176.491763,156.063954 175.503213,155.307546 174.428171,155.452511 C174.313004,155.468068 174.191257,155.497061 174.084082,155.531004" id="Fill-90" fill="#FAC5CA"></path>
                    <path d="M188.073826,118.605512 C188.073826,118.605512 183.674473,120.509848 187.089976,131.927141 C190.505245,143.344669 194.600464,147.961134 186.793835,150.570962 C178.98744,153.180555 171.585302,155.696805 171.585302,155.696805 L172.083808,159.697584 C172.083808,159.697584 197.736983,158.177226 198.387555,149.695755 C199.038127,141.214048 194.790606,123.606662 193.977391,121.812641 C193.164411,120.018384 192.501617,118.605512 188.073826,118.605512" id="Fill-92" fill="#FFC6CA"></path>
                    <path d="M40.7198882,225.217551 C40.534447,225.775723 40.534447,230.055587 40.534447,230.055587 C40.534447,230.055587 54.0784736,230.427544 55.0061499,229.869373 C55.9338262,229.311201 56.4903849,226.706087 52.7796798,226.147916 C49.0689747,225.589744 44.4305933,223.356823 44.4305933,223.356823 L40.7198882,225.217551 Z" id="Fill-94" fill="#063B5D"></path>
                    <path d="M17.7134931,224.287234 C17.7134931,224.287234 19.5688457,229.311249 18.8266106,229.86942 C18.0846106,230.427591 10.2920829,231.543934 10.1064067,230.613806 C9.92096541,229.683206 14.002788,223.542849 14.002788,223.542849 L17.7134931,224.287234 Z" id="Fill-96" fill="#063B5D"></path>
                    <path d="M35.5876785,145.555104 C35.5876785,145.555104 46.8424812,224.473189 46.2859224,224.659404 C45.7293636,224.845382 39.6067472,228.008668 39.6067472,228.008668 L22.1668093,162.075139 C22.1668093,162.075139 19.3833104,225.589768 18.6410754,225.589768 C17.8990754,225.589768 12.8895765,225.775746 12.8895765,225.775746 C12.8895765,225.775746 7.49932373,172.031475 9.89313747,153.626432 C10.6985965,147.432332 10.9672395,135.313554 10.9672395,135.313554 L35.4034124,135.313554 L35.5876785,145.555104 Z" id="Fill-98" fill="#222B53"></path>
                    <path d="M15.5696373,144.241704 L28.8525419,144.616961 L18.6410519,225.589768 L12.889553,225.775746 C12.889553,225.775746 10.331216,189.834975 9.20869712,182.142204 C8.08617827,174.449432 8.8347592,143.866446 8.8347592,143.866446 L15.5696373,144.241704 Z" id="Fill-100" fill="#063B5D"></path>
                    <path d="M16.3212736,81.1568293 C16.3212736,81.1568293 18.3364488,84.9612579 18.217992,86.9825079 C18.0995353,89.0035221 16.4397304,96.7311793 16.4397304,96.7311793 L23.9081472,98.0391579 L27.227522,96.969015 L26.7532248,93.1645864 C26.7532248,93.1645864 29.0267016,91.693965 29.4798457,90.9057364 C30.8115441,88.5898436 31.6137126,80.3245221 31.6137126,80.3245221 L23.5525419,73.3101364 L19.6404133,74.855715 L16.3212736,81.1568293 Z" id="Fill-102" fill="#FFC6CA"></path>
                    <path d="M17.0324843,85.1991171 C17.0324843,85.1991171 14.1874067,81.3946886 14.0689499,79.84911 C13.9502581,78.3035314 13.476196,72.3590529 16.3212736,71.05131 C19.1663512,69.7435671 25.3308035,65.7013029 28.5314865,68.67366 C31.7321694,71.6457814 35.7627548,74.9745386 36.711114,77.2333886 C37.6594732,79.4924743 32.7989854,82.8212314 30.0723645,82.10796 C27.3459787,81.3946886 23.3153933,76.5201171 22.3670341,77.4712243 C21.4186749,78.4223314 20.4703157,84.8424814 20.4703157,84.8424814 C20.4703157,84.8424814 19.4034998,80.8002171 18.9292027,80.3245457 C18.4551406,79.84911 17.5065463,82.3457957 18.0995353,83.0590671 C18.6920541,83.7723386 18.217992,86.9825314 18.217992,86.9825314 L17.0324843,85.1991171 Z" id="Fill-104" fill="#222B53"></path>
                    <path d="M16.2026758,92.4512679 C16.3213676,92.3324679 19.5220506,96.8501679 21.5372257,96.9692036 C23.5524009,97.0880036 26.7533188,95.4233893 26.7533188,95.4233893 L26.7533188,93.1645393 C26.7533188,93.1645393 29.3612479,91.3813607 29.4797047,90.9056893 C29.4797047,90.9056893 39.319137,93.5214107 39.4375938,96.8501679 C39.5560506,100.179161 45.7205029,117.893561 45.7205029,117.893561 L37.8964807,124.670111 L36.7102678,134.672882 L36.5231814,150.621075 L8.27335876,152.497361 L7.71209933,124.728568 L8.37865366,117.180054 L8.85295078,112.900189 L0.199026164,117.180054 C0.199026164,117.180054 -0.156579157,103.745754 2.68849845,99.941325 C5.53357605,96.1368964 16.2026758,92.4512679 16.2026758,92.4512679" id="Fill-106" fill="#2146A8"></path>
                    <path d="M30.450486,97.14078 C31.0413596,96.8869157 36.1056213,95.5746943 36.2746102,96.7176729 C36.4433641,97.8604157 35.4007565,99.8243871 35.4007565,99.8243871 L31.1257366,109.499987 C31.1257366,109.499987 26.9475503,109.66923 26.6944195,109.66923 C26.4410537,109.66923 24.8374217,109.245887 25.2172355,107.933901 C25.5970492,106.62168 28.8877499,98.3339657 29.3110448,97.9450371 C29.8175415,97.4795014 30.450486,97.14078 30.450486,97.14078" id="Fill-108" fill="#004E4A"></path>
                    <path d="M31.1890075,97.8815593 C31.7798812,97.627695 36.8441428,96.3154736 37.0131317,97.4582164 C37.1818856,98.601195 36.1395131,100.564931 36.1395131,100.564931 L31.8642581,110.240531 C31.8642581,110.240531 27.6860718,110.410009 27.432941,110.410009 C27.1795752,110.410009 25.5759432,109.986666 25.955757,108.674681 C26.3355707,107.362459 29.6262714,99.074745 30.0495663,98.6858164 C30.556063,98.220045 31.1890075,97.8815593 31.1890075,97.8815593" id="Fill-110" fill="#03726A"></path>
                    <path d="M0.199026164,117.180171 C0.199026164,117.180171 7.78589978,113.375743 8.85295078,112.900071 C9.91976674,112.424636 8.2601969,118.012479 9.68261818,115.753629 C11.1052745,113.494779 17.8622457,104.577943 17.8622457,104.577943 C17.8622457,104.577943 18.217851,101.13015 20.2332612,100.060243 C22.2484364,98.9901 28.0572834,97.9201929 27.701678,99.1091357 C27.3460727,100.297843 23.9082412,100.654714 24.1451548,102.081257 C24.3823033,103.508036 24.9750572,105.766886 23.0783388,106.480157 L21.1816204,107.193429 C21.1816204,107.193429 15.5840683,130.016936 7.07468914,128.950093 C2.33289313,128.355857 0.199026164,117.180171 0.199026164,117.180171" id="Fill-112" fill="#FFC6CA"></path>
                    <path d="M42.756898,118.25022 L45.7204324,117.893584 C45.7204324,117.893584 47.7358426,128.950234 42.5197494,129.069034 C37.3036563,129.18807 36.1183836,127.523456 34.814184,124.313499 C33.5102195,121.103541 31.2578958,109.45242 30.4282284,108.739149 C30.4282284,108.739149 26.5160998,103.032506 27.2275455,100.77342 C27.9387561,98.51457 28.53151,96.37452 29.4798692,97.2068271 C30.4282284,98.0391343 33.3917627,102.438034 34.340122,102.200199 C35.2884812,101.962363 36.1183836,100.416784 36.1183836,100.416784 C36.1183836,100.416784 37.1851996,101.843563 36.4739889,103.507941 C35.7627783,105.172556 34.4588137,107.431406 34.4588137,107.431406 L42.756898,118.25022 Z" id="Fill-114" fill="#FFC6CA"></path>
                    <g id="Group-118" transform="translate(79.206208, 0.000000)">
                        <mask id="mask-6" fill="white">
                            <use xlink:href="#path-5"></use>
                        </mask>
                        <g id="Clip-117"></g>
                        <path d="M31.1004705,40.3204607 C26.3687809,40.3204607 22.5332732,36.4736036 22.5332732,31.7284393 C22.5332732,26.9830393 26.3687809,23.1361821 31.1004705,23.1361821 C35.8321601,23.1361821 39.6676678,26.9830393 39.6676678,31.7284393 C39.6676678,36.4736036 35.8321601,40.3204607 31.1004705,40.3204607 M31.1004705,0.119625 C13.9616102,0.119625 0.0680891353,14.0536393 0.0680891353,31.2421607 C0.0680891353,48.4304464 31.1004705,93.4867607 31.1004705,93.4867607 C31.1004705,93.4867607 62.1328519,48.4304464 62.1328519,31.2421607 C62.1328519,14.0536393 48.2393308,0.119625 31.1004705,0.119625" id="Fill-116" fill="#2146A8" mask="url(#mask-6)"></path>
                    </g>
                </g>
            </g>
        </g>
    </g>
</svg>